<?xml version="1.0" encoding="iso-8859-1"?>
<!-- Generator: Adobe Illustrator 19.0.0, SVG Export Plug-In . SVG Version: 6.00 Build 0)  -->
<svg version="1.1" id="Layer_1" xmlns="http://www.w3.org/2000/svg" xmlns:xlink="http://www.w3.org/1999/xlink" x="0px" y="0px"
	 viewBox="0 0 501.462 501.462" style="enable-background:new 0 0 501.462 501.462;" xml:space="preserve">
<g>
	<g>
		<path d="M479.53,372.396h-14.933c-7.467-55.467-44.8-291.2-179.2-356.267c-56.533-26.667-120.533-20.267-190.933,19.2
			c-9.6-13.867-24.533-23.467-42.667-23.467c-27.733,0-51.2,23.467-51.2,52.267s22.4,52.267,51.2,52.267
			c18.133,0,34.133-9.6,43.733-23.467c12.8,7.467,28.8,22.4,38.4,46.933c21.333,53.333,3.2,134.4-51.2,232.533H67.798
			c-11.733,0-21.333,9.6-21.333,21.333v86.4c0,11.733,9.6,21.333,21.333,21.333h410.667c11.733,0,21.333-9.6,22.4-21.333v-86.4
			C500.864,381.996,491.264,372.396,479.53,372.396z M52.864,74.796c-5.333,0-9.6-4.267-9.6-10.667s4.267-10.667,9.6-10.667
			c6.4,0,9.6,4.267,9.6,10.667S58.197,74.796,52.864,74.796z M173.397,122.796c-11.733-28.8-29.867-48-45.867-59.733
			c53.333-26.667,100.267-29.867,140.8-10.667c110.933,53.333,147.2,262.4,154.667,320H129.664
			C184.064,269.996,197.93,184.662,173.397,122.796z M457.13,459.862H88.064v-44.8H457.13V459.862z"/>
	</g>
</g>
<g>
</g>
<g>
</g>
<g>
</g>
<g>
</g>
<g>
</g>
<g>
</g>
<g>
</g>
<g>
</g>
<g>
</g>
<g>
</g>
<g>
</g>
<g>
</g>
<g>
</g>
<g>
</g>
<g>
</g>
</svg>
