<?xml version="1.0" encoding="utf-8"?>
<!-- Generator: Adobe Illustrator 22.0.1, SVG Export Plug-In . SVG Version: 6.00 Build 0)  -->
<svg version="1.1" id="Layer_1" xmlns="http://www.w3.org/2000/svg" xmlns:xlink="http://www.w3.org/1999/xlink" x="0px" y="0px"
	 viewBox="0 0 501.5 501.5" style="enable-background:new 0 0 501.5 501.5;" xml:space="preserve">
<style type="text/css">
	.st0{fill:#FFFFFF;}
	.st1{fill:#231F20;}
</style>
<g>
	<g id="XMLID_1_">
		<g>
			<rect x="88.1" y="415.1" class="st0" width="369.1" height="44.8"/>
			<path class="st0" d="M423,372.4H129.7c54.4-102.4,68.3-187.7,43.7-249.6c-11.7-28.8-29.9-48-45.9-59.7
				c53.3-26.7,100.3-29.9,140.8-10.7C379.3,105.7,415.5,314.8,423,372.4z"/>
			<path class="st1" d="M500.9,393.7v86.4c-1.1,11.7-10.7,21.3-22.4,21.3H67.8c-11.7,0-21.3-9.6-21.3-21.3v-86.4
				c0-11.7,9.6-21.3,21.3-21.3h14.9c54.4-98.1,72.5-179.2,51.2-232.5c-9.6-24.5-25.6-39.5-38.4-46.9c-9.6,13.9-25.6,23.5-43.7,23.5
				C23,116.4,0.6,92.9,0.6,64.1s23.5-52.3,51.2-52.3c18.1,0,33.1,9.6,42.7,23.5c70.4-39.5,134.4-45.9,190.9-19.2
				c134.4,65.1,171.7,300.8,179.2,356.3h14.9C491.3,372.4,500.9,382,500.9,393.7z M457.1,459.9v-44.8H88.1v44.8H457.1z M129.7,372.4
				H423c-7.5-57.6-43.7-266.7-154.7-320c-40.5-19.2-87.5-16-140.8,10.7c16,11.7,34.1,30.9,45.9,59.7
				C197.9,184.7,184.1,270,129.7,372.4z M62.5,64.1c0-6.4-3.2-10.7-9.6-10.7c-5.3,0-9.6,4.3-9.6,10.7s4.3,10.7,9.6,10.7
				C58.2,74.8,62.5,70.5,62.5,64.1z"/>
		</g>
		<g>
		</g>
	</g>
</g>
</svg>
